<?xml version="1.0" encoding="utf-8"?>
<!-- Generator: Adobe Illustrator 16.0.0, SVG Export Plug-In . SVG Version: 6.00 Build 0)  -->
<!DOCTYPE svg PUBLIC "-//W3C//DTD SVG 1.1//EN" "http://www.w3.org/Graphics/SVG/1.1/DTD/svg11.dtd">
<svg version="1.1" id="Layer_1" xmlns="http://www.w3.org/2000/svg" xmlns:xlink="http://www.w3.org/1999/xlink" x="0px" y="0px"
	 width="496.5px" height="144.5px" viewBox="0 0 496.5 144.5" enable-background="new 0 0 496.5 144.5" xml:space="preserve">
<g>
	<path fill="#173963" d="M43.26,2.9h-0.255H32.281H2.354v111.745h29.928h10.723h0.255c2.809,0,5.106-2.298,5.106-5.105V8.006
		C48.366,5.198,46.068,2.9,43.26,2.9z M28.646,94.925h-6.573V68.633h6.573V94.925z M28.646,48.912h-6.573V22.62h6.573V48.912z"/>
</g>
<path fill="#173963" d="M54.938,29.193h46.013v85.452H54.938V29.193z M74.658,94.925h6.573V48.912h-6.573V94.925z"/>
<path fill="#173963" d="M107.524,121.218h26.293v-6.573h-26.293V29.193h46.012v111.745h-46.012V121.218z M127.244,48.912v46.013
	h6.573V48.912H127.244z"/>
<path fill="#173963" d="M160.108,29.193h46.013v85.452h-46.013V29.193z M179.829,94.925h6.573V48.912h-6.573V94.925z"/>
<path fill="#173963" d="M212.694,29.193h6.573V2.9h19.72v26.293h6.573v19.719h-6.573l-0.038,65.732h-19.682V48.912h-6.573V29.193z"
	/>
<path fill="#63943F" d="M407.842,29.193h6.573V2.9h19.72v26.293h6.574v19.719h-6.574l-0.038,65.732h-19.682V48.912h-6.573V29.193z"
	/>
<path fill="#173963" d="M252.132,22.62V9.473L298.145,2.9v13.146L252.132,22.62z M252.132,114.645V62.059h26.293V48.912h-6.573
	v6.574h-19.72V29.193h46.013v85.452H252.132z M271.852,81.779v13.277l6.573-0.132V81.779H271.852z"/>
<path fill="#63943F" d="M357.301,114.645V62.059h26.294V48.912h-6.573v6.574h-19.721V29.193h46.014v85.452H357.301z M377.021,81.779
	v13.277l6.573-0.132V81.779H377.021z"/>
<path fill="#63943F" d="M447.28,114.645V62.059h26.293V48.912H467v6.574h-19.72V29.193h46.013v85.452H447.28z M467,81.779v13.277
	l6.573-0.132V81.779H467z"/>
<path fill="#63943F" d="M345.188,2.9h-0.727h-8.004h-31.741v111.745h31.741h8.004h0.727c2.809,0,5.106-2.298,5.106-5.105V8.006
	C350.295,5.198,347.997,2.9,345.188,2.9z M331.01,94.925h-6.574V22.62h6.574V94.925z"/>
</svg>
